<svg id="Capa_1" enable-background="new 0 0 512 512" height="512" viewBox="0 0 512 512" width="512" xmlns="http://www.w3.org/2000/svg"><path d="m497 512h-304.2v-58.492c0-118.851 42.155-224.724 104.694-305.126 3.242-4.172 5.893-7.581 7.773-9.998v-123.384c0-8.284 6.716-15 15-15h16.067c29.682 0 54.65 20.568 61.401 48.2 72.801 0 107.535 64.115 95.77 117.226-3.263 14.732-16.3 25.241-31.389 25.241h-30.45v17.869c0 12.521 9.985 20.463 22.188 17.66 30.35-6.972 58.145 15.846 58.145 45.87 0 25.744-20.796 47.134-47.133 47.134h-36.482c21.783 20.344 35.416 49.3 35.416 81.384v18.946c27.635 6.75 48.2 31.712 48.2 61.387v16.083c0 8.284-6.715 15-15 15z" fill="#ff6f00"/><path d="m193.003 179.995c0-86.422-65.359-178.749-177.727-179.983-8.391-.091-15.276 6.609-15.276 15.001v304.01c0 106.518 86.302 192.878 192.798 192.975l.002.002v-.002c.059 0 .118.002.177.002z" fill="#ffc000"/><path d="m497 512c8.284 0 15-6.716 15-15v-16.083c0-29.675-20.565-54.637-48.2-61.387v-18.946c0-32.084-13.632-61.04-35.416-81.384h36.482c26.337 0 47.133-21.39 47.133-47.134 0-30.024-27.795-52.842-58.145-45.87-12.203 2.803-22.188-5.139-22.188-17.66v-17.869h30.45c15.089 0 28.126-10.509 31.389-25.241 11.764-53.11-22.97-117.226-95.77-117.226-6.751-27.631-31.719-48.2-61.401-48.2h-16.067c-8.284 0-15 6.716-15 15v497z" fill="#dc3c00"/></svg>